<svg width="24" height="24" viewBox="0 0 24 24" fill="none" xmlns="http://www.w3.org/2000/svg">
<path fill-rule="evenodd" clip-rule="evenodd" d="M5.1298 4.25C5.15625 3.85576 5.32002 3.46996 5.62009 3.16988L7.04009 1.74988C7.70009 1.08988 8.79009 1.08988 9.45009 1.74988L11.9502 4.25H12.04L14.5401 1.74988C15.2001 1.08988 16.2901 1.08988 16.9501 1.74988L18.3701 3.16988C18.6702 3.46996 18.8361 3.85576 18.8639 4.25H19.5C21.2 4.25 22.25 5.3 22.25 7V8C22.25 9.24411 21.6876 10.1401 20.7197 10.5312V18C20.7197 21.42 19.3897 22.75 15.9697 22.75H7.96973C4.54973 22.75 3.21973 21.42 3.21973 18V10.5235C2.27127 10.136 1.75 9.26348 1.75 8V7C1.75 5.25 2.75 4.25 4.5 4.25H5.1298ZM9.84009 4.24988H6.67009C6.67009 4.24488 6.67259 4.24238 6.67509 4.23988C6.67759 4.23738 6.68009 4.23488 6.68009 4.22988L8.10009 2.80988C8.18009 2.72988 8.31009 2.72988 8.39009 2.80988L9.84009 4.24988ZM14.9804 9.25H19.5C20.38 9.25 20.75 8.88 20.75 8V7C20.75 6.12 20.38 5.75 19.5 5.75H4.5C3.59 5.75 3.25 6.09 3.25 7V8C3.25 8.91 3.59 9.25 4.5 9.25H8.94043H14.9804ZM9.69043 10.75H14.2304V15.12C14.2304 15.25 14.1504 15.31 14.1004 15.34C14.0504 15.37 13.9504 15.4 13.8404 15.33L12.9504 14.73C12.3704 14.34 11.6104 14.34 11.0204 14.73L10.0804 15.35C9.97043 15.42 9.87043 15.39 9.82043 15.36C9.77043 15.33 9.69043 15.27 9.69043 15.14V10.75ZM8.19043 10.75V15.15C8.19043 15.79 8.54043 16.38 9.11043 16.69C9.37043 16.83 9.66043 16.9 9.94043 16.9C10.2704 16.9 10.6104 16.8 10.9004 16.6L11.8404 15.98C11.9304 15.92 12.0404 15.92 12.1204 15.98L13.0104 16.58C13.5504 16.94 14.2404 16.98 14.8104 16.67C15.3804 16.37 15.7304 15.78 15.7304 15.13V10.75H19.2197V18C19.2197 20.58 18.5497 21.25 15.9697 21.25H7.96973C5.38973 21.25 4.71973 20.58 4.71973 18V10.75H8.19043ZM14.1701 4.24988H17.3401L17.3201 4.22988L15.9001 2.80988C15.8201 2.72988 15.6901 2.72988 15.6101 2.80988L14.1701 4.24988Z" fill="#00A300"/>
</svg>
