<svg width="24" height="24" viewBox="0 0 24 24" fill="none" xmlns="http://www.w3.org/2000/svg">
<path fill-rule="evenodd" clip-rule="evenodd" d="M13.9001 18.6C14.0501 18.75 14.2401 18.82 14.4301 18.82C14.6201 18.82 14.8101 18.75 14.9601 18.6L21.0301 12.53C21.3201 12.24 21.3201 11.76 21.0301 11.47L14.9601 5.4C14.6701 5.11 14.1901 5.11 13.9001 5.4C13.6101 5.69 13.6101 6.17 13.9001 6.46L18.6901 11.25H3.5C3.09 11.25 2.75 11.59 2.75 12C2.75 12.41 3.09 12.75 3.5 12.75H18.6901L13.9001 17.54C13.6101 17.83 13.6101 18.31 13.9001 18.6Z" fill="#1F1F1F"/>
</svg>
