<svg width="24" height="24" viewBox="0 0 24 24" fill="none" xmlns="http://www.w3.org/2000/svg">
<g id="icons/outline/shop-cart">
<path id="Union" fill-rule="evenodd" clip-rule="evenodd" d="M0.25 3C0.25 2.58579 0.585786 2.25 1 2.25H2.43845C3.70033 2.25 4.80029 3.10882 5.10634 4.33303L5.21058 4.75H21.347C22.412 4.75 23.23 5.69323 23.0794 6.74749L21.9878 14.3889C21.7942 15.7437 20.6339 16.75 19.2654 16.75H8.21058L8.58558 18.25L19.9967 18.25H20C21.5188 18.25 22.75 19.4812 22.75 21C22.75 22.5188 21.5188 23.75 20 23.75C18.4812 23.75 17.25 22.5188 17.25 21C17.25 20.5499 17.3581 20.125 17.5499 19.75L10.4501 19.75C10.6419 20.125 10.75 20.5499 10.75 21C10.75 22.5188 9.51878 23.75 8 23.75C6.48122 23.75 5.25 22.5188 5.25 21C5.25 19.8043 6.01314 18.7868 7.07893 18.408L3.65113 4.69683C3.51201 4.14037 3.01203 3.75 2.43845 3.75H1C0.585786 3.75 0.25 3.41421 0.25 3ZM7.98672 19.7501C7.30248 19.7572 6.75 20.3141 6.75 21C6.75 21.6904 7.30964 22.25 8 22.25C8.69036 22.25 9.25 21.6904 9.25 21C9.25 20.3138 8.69714 19.7568 8.01257 19.7501C8.00393 19.7502 7.99531 19.7502 7.98672 19.7501ZM19.9978 19.75H20C20.6904 19.75 21.25 20.3096 21.25 21C21.25 21.6904 20.6904 22.25 20 22.25C19.3096 22.25 18.75 21.6904 18.75 21C18.75 20.3104 19.3085 19.7512 19.9978 19.75ZM7.83558 15.25L5.58558 6.25H21.347C21.4991 6.25 21.616 6.38475 21.5945 6.53536L20.5028 14.1768C20.4149 14.7926 19.8875 15.25 19.2654 15.25H7.83558Z" fill="#00D61E"/>
</g>
</svg>
