<svg width="24" height="24" viewBox="0 0 24 24" fill="none" xmlns="http://www.w3.org/2000/svg">
<path fill-rule="evenodd" clip-rule="evenodd" d="M5 2.75C3.20507 2.75 1.75 4.20507 1.75 6V15C1.75 16.7949 3.20507 18.25 5 18.25H12H19C20.7949 18.25 22.25 16.7949 22.25 15V6C22.25 4.20507 20.7949 2.75 19 2.75H5ZM12.75 19.75H19C21.6234 19.75 23.75 17.6234 23.75 15V6C23.75 3.37665 21.6234 1.25 19 1.25H5C2.37665 1.25 0.25 3.37665 0.25 6V15C0.25 17.6234 2.37665 19.75 5 19.75H11.25V21.25H5C4.58579 21.25 4.25 21.5858 4.25 22C4.25 22.4142 4.58579 22.75 5 22.75H12H19C19.4142 22.75 19.75 22.4142 19.75 22C19.75 21.5858 19.4142 21.25 19 21.25H12.75V19.75ZM8 5.75C7.30964 5.75 6.75 6.30964 6.75 7C6.75 7.69036 7.30964 8.25 8 8.25C8.69036 8.25 9.25 7.69036 9.25 7C9.25 6.30964 8.69036 5.75 8 5.75ZM5.25 7C5.25 5.48122 6.48122 4.25 8 4.25C9.51878 4.25 10.75 5.48122 10.75 7C10.75 8.51878 9.51878 9.75 8 9.75C6.48122 9.75 5.25 8.51878 5.25 7ZM14.75 7C14.75 6.30964 15.3096 5.75 16 5.75C16.6904 5.75 17.25 6.30964 17.25 7C17.25 7.69036 16.6904 8.25 16 8.25C15.3096 8.25 14.75 7.69036 14.75 7ZM16 4.25C14.4812 4.25 13.25 5.48122 13.25 7C13.25 8.51878 14.4812 9.75 16 9.75C17.5188 9.75 18.75 8.51878 18.75 7C18.75 5.48122 17.5188 4.25 16 4.25ZM5.56907 12.3682C4.97157 12.7417 4.75 13.1615 4.75 13.5C4.75 13.8385 4.97157 14.2583 5.56907 14.6318C6.156 14.9986 7.01351 15.25 8 15.25C8.98649 15.25 9.844 14.9986 10.4309 14.6318C11.0284 14.2583 11.25 13.8385 11.25 13.5C11.25 13.1615 11.0284 12.7417 10.4309 12.3682C9.844 12.0014 8.98649 11.75 8 11.75C7.01351 11.75 6.156 12.0014 5.56907 12.3682ZM4.77407 11.0962C5.63486 10.5582 6.77735 10.25 8 10.25C9.22265 10.25 10.3651 10.5582 11.2259 11.0962C12.0761 11.6276 12.75 12.4577 12.75 13.5C12.75 14.5423 12.0761 15.3724 11.2259 15.9038C10.3651 16.4418 9.22265 16.75 8 16.75C6.77735 16.75 5.63486 16.4418 4.77407 15.9038C3.92386 15.3724 3.25 14.5423 3.25 13.5C3.25 12.4577 3.92386 11.6276 4.77407 11.0962ZM15.1192 11.8192C15.399 11.7742 15.6943 11.75 16.0001 11.75C16.9866 11.75 17.8441 12.0014 18.431 12.3682C19.0285 12.7417 19.2501 13.1615 19.2501 13.5C19.2501 13.8385 19.0285 14.2583 18.431 14.6318C17.8441 14.9986 16.9866 15.25 16.0001 15.25C15.6943 15.25 15.399 15.2258 15.1192 15.1808C14.7103 15.115 14.3254 15.3932 14.2596 15.8021C14.1938 16.2111 14.472 16.5959 14.881 16.6617C15.2404 16.7195 15.6154 16.75 16.0001 16.75C17.2228 16.75 18.3653 16.4418 19.226 15.9038C20.0763 15.3724 20.7501 14.5423 20.7501 13.5C20.7501 12.4577 20.0763 11.6276 19.226 11.0962C18.3653 10.5582 17.2228 10.25 16.0001 10.25C15.6154 10.25 15.2404 10.2805 14.881 10.3383C14.472 10.4041 14.1938 10.7889 14.2596 11.1979C14.3254 11.6068 14.7103 11.885 15.1192 11.8192Z" fill="#B8B8B8"/>
</svg>
